<svg xmlns="http://www.w3.org/2000/svg" width="471" height="385" viewBox="0 0 471 385">
<g>
<path d="M 255.83 355.52 C253.45,355.84 250.38,356.23 249.00,356.39 C243.32,357.05 234.34,354.88 226.37,350.94 C219.86,347.71 216.56,345.22 210.71,339.09 C199.52,327.38 198.78,324.76 198.24,294.74 C197.92,276.92 197.95,271.10 195.38,269.54 C194.14,268.78 192.30,269.02 189.52,269.38 C189.24,269.41 188.96,269.45 188.66,269.49 C154.09,273.85 124.70,284.68 105.46,300.16 C96.00,307.77 85.20,319.42 74.36,333.72 C62.57,349.25 57.01,352.39 45.49,350.00 C40.55,348.97 38.90,347.99 33.97,343.15 C28.48,337.77 28.15,337.16 27.03,330.33 C24.80,316.79 28.28,276.79 33.55,255.61 C42.16,220.94 57.04,193.18 80.68,167.66 C107.85,138.33 138.37,120.72 180.69,109.95 C189.20,107.79 196.58,105.76 197.08,105.45 C197.60,105.13 198.00,93.86 198.01,79.69 C198.01,65.84 198.45,51.82 198.99,48.56 C200.36,40.13 204.37,32.92 211.43,26.14 C221.32,16.65 230.67,12.98 244.93,13.02 C258.38,13.06 264.88,16.40 288.07,35.14 C294.43,40.29 320.08,60.85 345.07,80.84 C417.85,139.05 430.14,149.10 436.69,155.75 C446.49,165.71 450.58,176.34 449.81,189.80 C449.49,195.21 448.60,199.19 446.84,203.02 C442.15,213.23 438.45,216.54 373.57,268.32 C361.98,277.56 344.40,291.61 334.50,299.53 C269.92,351.21 265.69,354.22 255.83,355.52 ZM 239.87 324.99 C241.87,326.05 244.59,326.93 245.92,326.96 C249.30,327.02 257.95,321.92 266.91,314.59 C279.72,304.11 309.02,280.74 356.50,243.13 C366.40,235.28 377.42,226.46 381.00,223.52 C384.58,220.58 393.24,213.59 400.26,207.98 C415.39,195.90 420.00,190.90 420.00,186.57 C419.99,180.52 415.61,175.90 392.50,157.56 C382.49,149.61 377.85,145.89 346.90,120.90 C337.77,113.53 323.60,102.13 315.40,95.56 C284.11,70.49 280.15,67.31 268.00,57.44 C261.12,51.86 253.61,46.33 251.29,45.15 C243.48,41.17 234.84,42.93 230.96,49.30 C229.13,52.30 229.01,54.56 228.98,86.00 C228.96,116.50 228.79,119.87 227.09,123.60 C226.07,125.85 223.88,128.66 222.22,129.84 C219.14,132.03 217.61,132.43 198.50,136.03 C181.51,139.22 166.29,144.34 150.50,152.16 C133.57,160.55 120.91,170.12 105.49,186.18 C79.42,213.35 64.58,245.37 59.05,286.32 C57.77,295.85 57.70,302.00 58.88,302.00 C59.36,302.00 65.10,296.70 71.63,290.22 C89.57,272.41 108.68,260.59 133.16,252.17 C153.74,245.09 179.98,240.27 203.00,239.34 C214.67,238.87 215.80,238.99 220.00,241.17 C223.26,242.86 225.12,244.73 226.75,247.96 C228.93,252.28 229.00,253.36 229.01,280.96 C229.01,297.51 229.45,311.06 230.04,313.22 C231.35,317.91 235.19,322.52 239.87,324.99 Z" fill="rgb(0,0,0)"/>
<path d="M 0.00 192.50 L 0.00 0.00 L 235.50 0.00 L 471.00 0.00 L 471.00 192.50 L 471.00 385.00 L 235.50 385.00 L 0.00 385.00 L 0.00 192.50 ZM 255.83 355.52 C265.69,354.22 269.92,351.21 334.50,299.53 C344.40,291.61 361.98,277.56 373.57,268.32 C438.45,216.54 442.15,213.23 446.84,203.02 C448.60,199.19 449.49,195.21 449.81,189.80 C450.58,176.34 446.49,165.71 436.69,155.75 C430.14,149.10 417.85,139.05 345.07,80.84 C320.08,60.85 294.43,40.29 288.07,35.14 C264.88,16.40 258.38,13.06 244.93,13.02 C230.67,12.98 221.32,16.65 211.43,26.14 C204.37,32.92 200.36,40.13 198.99,48.56 C198.45,51.82 198.01,65.84 198.01,79.69 C198.00,93.86 197.60,105.13 197.08,105.45 C196.58,105.76 189.20,107.79 180.69,109.95 C138.37,120.72 107.85,138.33 80.68,167.66 C57.04,193.18 42.16,220.94 33.55,255.61 C28.28,276.79 24.80,316.79 27.03,330.33 C28.15,337.16 28.48,337.77 33.97,343.15 C38.90,347.99 40.55,348.97 45.49,350.00 C57.01,352.39 62.57,349.25 74.36,333.72 C85.20,319.42 96.00,307.77 105.46,300.16 C124.70,284.68 154.09,273.85 188.66,269.49 C198.07,268.30 197.75,267.46 198.24,294.74 C198.78,324.76 199.52,327.38 210.71,339.09 C216.56,345.22 219.86,347.71 226.37,350.94 C234.34,354.88 243.32,357.05 249.00,356.39 C250.38,356.23 253.45,355.84 255.83,355.52 ZM 239.87 324.99 C235.19,322.52 231.35,317.91 230.04,313.22 C229.45,311.06 229.01,297.51 229.01,280.96 C229.00,253.36 228.93,252.28 226.75,247.96 C225.12,244.73 223.26,242.86 220.00,241.17 C215.80,238.99 214.67,238.87 203.00,239.34 C179.98,240.27 153.74,245.09 133.16,252.17 C108.68,260.59 89.57,272.41 71.63,290.22 C65.10,296.70 59.36,302.00 58.88,302.00 C57.70,302.00 57.77,295.85 59.05,286.32 C64.58,245.37 79.42,213.35 105.49,186.18 C120.91,170.12 133.57,160.55 150.50,152.16 C166.29,144.34 181.51,139.22 198.50,136.03 C217.61,132.43 219.14,132.03 222.22,129.84 C223.88,128.66 226.07,125.85 227.09,123.60 C228.79,119.87 228.96,116.50 228.98,86.00 C229.01,54.56 229.13,52.30 230.96,49.30 C234.84,42.93 243.48,41.17 251.29,45.15 C253.61,46.33 261.12,51.86 268.00,57.44 C280.15,67.31 284.11,70.49 315.40,95.56 C323.60,102.13 337.77,113.53 346.90,120.90 C377.85,145.89 382.49,149.61 392.50,157.56 C415.61,175.90 419.99,180.52 420.00,186.57 C420.00,190.90 415.39,195.90 400.26,207.98 C393.24,213.59 384.58,220.58 381.00,223.52 C377.42,226.46 366.40,235.28 356.50,243.13 C309.02,280.74 279.72,304.11 266.91,314.59 C257.95,321.92 249.30,327.02 245.92,326.96 C244.59,326.93 241.87,326.05 239.87,324.99 Z" fill="rgb(254,254,254)"/>
</g>
</svg>